Coordinates
version=1
nRows=8
nColumns=33
inDegrees=yes

Units are S.I. units (second, meters, Newtons, ...)
Angles are in degrees.

endheader
time	ground_thorax_rot_x	ground_thorax_rot_y	ground_thorax_rot_z	ground_thorax_tx	ground_thorax_ty	ground_thorax_tz	clav_prot_r	clav_elev_r	scapula_abduction_r	scapula_elevation_r	scapula_upward_rot_r	scapula_winging_r	shoulder_elv_r	plane_of_elev_r	axial_rot_r	elbow_flexion_r	pro_sup_r	wrist_flex_r	wrist_dev_r	clav_prot_l	clav_elev_l	scapula_abduction_l	scapula_elevation_l	scapula_upward_rot_l	scapula_winging_l	shoulder_elv_l	plane_of_elev_l	axial_rot_l	elbow_flexion_l	pro_sup_l	wrist_flex_l	wrist_dev_l
      2.12000000	    -39.25442025	     -6.30597510	      7.37791283	   -173.76168546	    864.95996924	     -5.71314714	      3.50721686	    -45.00000000	     37.97674157	    -45.00000000	     -6.67318985	   2050.70647869	     70.11329234	     21.85858934	   -179.99999979	    725.18041412	    288.78988062	     21.68387613	      8.75388462	     15.18995014	     38.23521886	    -37.09859025	    -45.00000000	    -45.00000000	   -635.91738212	  -3528.38041888	     19.44441202	    -46.50338577	   -347.68840197	     42.59759524	      6.22445130	    -21.86217392
      2.13000000	    -39.37848192	     -6.06375563	      7.21104169	   -172.48223958	    866.15303958	     -5.61682847	      3.35314243	    -45.00000000	     38.24927358	    -45.00000000	     -5.75591326	   2050.61570742	     70.22083812	     21.77988878	   -179.99999979	    725.09232068	    290.39498070	     21.82807845	      8.52648901	     15.33419966	     38.26502809	    -37.55756986	    -45.00000000	    -45.00000000	   -635.62077046	  -3528.33788642	     19.45575208	    -46.30322372	   -347.42508556	     43.36729296	      6.03403203	    -21.86855377
      2.14000000	    -39.33929081	     -6.03414326	      7.05467537	   -171.19546462	    867.50277583	     -5.53654909	      3.32989741	    -45.00000000	     38.40517618	    -45.00000000	     -5.13054659	   2050.94770590	     70.51189040	     21.70598102	   -179.99999979	    725.06974213	    291.70398453	     21.97941968	      8.35408112	     15.05916660	     38.21704749	    -37.41014019	    -45.00000000	    -45.00000000	   -635.89482687	  -3527.98411988	     19.49093042	    -45.82879063	   -347.46743013	     44.02533266	      5.87695153	    -21.80164855
      2.15000000	    -39.36253206	     -5.76223051	      6.77930823	   -169.89186601	    869.01491768	     -5.46806409	      3.29133637	    -45.00000000	     38.57407293	    -45.00000000	     -4.41076837	   2050.97869099	     70.58566033	     21.84635249	   -179.99999979	    725.15230143	    292.87844399	     22.13598972	      8.22009608	     15.14879856	     38.21649572	    -37.58359533	    -45.00000000	    -45.00000000	   -635.80077832	  -3527.93978744	     19.82302437	    -45.58582007	   -347.47846616	     44.68240219	      5.84119131	    -21.83885602
      2.16000000	    -39.50981437	     -5.61661208	      6.62290517	   -168.56628577	    870.67875133	     -5.40934524	      3.30463496	    -45.00000000	     39.05765813	    -45.00000000	     -3.27622094	   2050.61328394	     70.62091312	     21.85493480	   -179.99999979	    725.01016798	    294.15198533	     22.23115451	      8.02399285	     15.17305790	     38.26242723	    -38.11359389	    -45.00000000	    -45.00000000	   -635.39816185	  -3527.87452155	     19.74048524	    -45.16853722	   -347.06774709	     45.36852151	      5.63569766	    -21.87601538
      2.17000000	    -39.58616194	     -5.14420235	      6.06124226	   -167.20244412	    872.48399449	     -5.36002241	      3.27077084	    -45.00000000	     39.57295581	    -45.00000000	     -1.60781574	   2050.09367616	     70.54476135	     22.27472523	   -179.99999979	    725.18978248	    295.74618219	     22.37182092	      7.86040166	     15.65849157	     38.41954021	    -38.60586833	    -45.00000000	    -45.00000000	   -634.99363625	  -3527.95971398	     20.17651735	    -44.90646454	   -346.95013318	     46.30988388	      5.62667251	    -21.99435753
      2.18000000	    -39.66582754	     -5.00594178	      5.89238532	   -165.78152368	    874.41533009	     -5.32131139	      3.17172986	    -45.00000000	     39.54309132	    -45.00000000	     -1.07853351	   2050.40849623	     70.72354308	     22.18184521	   -179.99999979	    725.01617313	    297.07232157	     22.55188625	      7.62768776	     15.35145470	     38.29255826	    -38.80253457	    -45.00000000	    -45.00000000	   -634.94196044	  -3527.65741129	     20.21178818	    -44.19027149	   -346.72084555	     47.02536129	      5.43578277	    -21.98887035
      2.19000000	    -39.67804391	     -4.68277349	      5.55550494	   -164.28299104	    876.45487150	     -5.29539593	      3.10266708	    -45.00000000	     39.90934551	    -45.00000000	     -0.00839650	   2050.28783088	     70.87084071	     22.37289107	   -179.99999979	    725.04300129	    298.29759600	     22.69517283	      7.46778236	     15.56682208	     38.35951068	    -39.15821750	    -45.00000000	    -45.00000000	   -634.76855340	  -3527.58021216	     20.49140587	    -43.80826863	   -346.70337766	     47.78376414	      5.35490359	    -22.00609054
